<svg width="16" height="22" viewBox="0 0 16 22" fill="none" xmlns="http://www.w3.org/2000/svg">
<circle cx="8" cy="11" r="8" fill="white"/>
<path d="M7.39062 15H2.40039V13.9502L4.19238 12.1387C4.72298 11.5951 5.06966 11.2191 5.23242 11.0107C5.39518 10.7992 5.51237 10.6038 5.58398 10.4248C5.6556 10.2458 5.69141 10.0602 5.69141 9.86816C5.69141 9.58171 5.61165 9.36849 5.45215 9.22852C5.2959 9.08854 5.08594 9.01855 4.82227 9.01855C4.54557 9.01855 4.27702 9.08203 4.0166 9.20898C3.75618 9.33594 3.48438 9.5166 3.20117 9.75098L2.38086 8.7793C2.73242 8.47982 3.02376 8.26823 3.25488 8.14453C3.486 8.02083 3.73828 7.92643 4.01172 7.86133C4.28516 7.79297 4.59115 7.75879 4.92969 7.75879C5.37565 7.75879 5.76953 7.84017 6.11133 8.00293C6.45312 8.16569 6.71842 8.39355 6.90723 8.68652C7.09603 8.97949 7.19043 9.31478 7.19043 9.69238C7.19043 10.0212 7.13184 10.3304 7.01465 10.6201C6.90072 10.9066 6.72168 11.2012 6.47754 11.5039C6.23665 11.8066 5.81022 12.238 5.19824 12.7979L4.28027 13.6621V13.7305H7.39062V15ZM10.7109 10.4395C11.401 10.4395 11.9495 10.6331 12.3564 11.0205C12.7666 11.4079 12.9717 11.9385 12.9717 12.6123C12.9717 13.4098 12.7259 14.0234 12.2344 14.4531C11.7428 14.8828 11.0397 15.0977 10.125 15.0977C9.33073 15.0977 8.68945 14.9691 8.20117 14.7119V13.4082C8.45833 13.5449 8.75781 13.6572 9.09961 13.7451C9.44141 13.8298 9.7653 13.8721 10.0713 13.8721C10.9925 13.8721 11.4531 13.4945 11.4531 12.7393C11.4531 12.0199 10.9762 11.6602 10.0225 11.6602C9.84993 11.6602 9.65951 11.6781 9.45117 11.7139C9.24284 11.7464 9.07357 11.7822 8.94336 11.8213L8.34277 11.499L8.61133 7.86133H12.4834V9.14062H9.93457L9.80273 10.542L9.97363 10.5078C10.1722 10.4622 10.418 10.4395 10.7109 10.4395Z" fill="#31393C"/>
</svg>
